<svg width="240" height="300" viewBox="0 0 240 300" fill="none" xmlns="http://www.w3.org/2000/svg">
  <rect width="240" height="300" rx="22" fill="#F6E7E1"/>
  <rect x="14" y="14" width="212" height="272" rx="16" fill="url(#bg)"/>
  <circle cx="120" cy="108" r="40" fill="#F4C5B6"/>
  <path d="M76 88C83 61 103 48 120 48C137 48 157 61 164 88C151 76 136 70 120 70C104 70 89 76 76 88Z" fill="#4D2E39"/>
  <rect x="71" y="155" width="98" height="78" rx="39" fill="#E9A4A7"/>
  <rect x="81" y="165" width="78" height="58" rx="29" fill="#F2D0C4"/>
  <rect x="82" y="236" width="76" height="10" rx="5" fill="#FFFFFF" fill-opacity="0.55"/>
  <rect x="82" y="252" width="54" height="10" rx="5" fill="#FFFFFF" fill-opacity="0.36"/>
  <defs>
    <linearGradient id="bg" x1="28" y1="24" x2="206" y2="277" gradientUnits="userSpaceOnUse">
      <stop stop-color="#FFF6F0"/>
      <stop offset="1" stop-color="#E8A9AE"/>
    </linearGradient>
  </defs>
</svg>
